<svg xmlns="http://www.w3.org/2000/svg" xml:space="preserve" x="0" y="0" version="1.1" viewBox="0 0 2500 2500"><style>.st1{fill-rule:evenodd;clip-rule:evenodd;fill:#fff}</style><g><g><circle cx="1250" cy="1250" r="1250" fill="#1da2b4" fill-rule="evenodd" clip-rule="evenodd"></circle><path d="M925 415c22-24 54-37 86-37h212c27 0 41 32 22 51L826 876h231l235 249H826l466 499h-282c-33 0-64-14-86-37l-473-506c-42-45-42-115 0-160l473-506h1z" class="st1"></path><path d="M1575 2085c-22 24-54 37-86 37h-212c-27 0-41-32-22-51l419-447h-231l-235-249h466l-466-499h282c33 0 64 14 86 37l473 506c42 45 42 115 0 160l-473 506h-1z" class="st1"></path></g></g></svg>