<svg xmlns="http://www.w3.org/2000/svg" viewBox="0 0 525 203" fill="none"><g clip-path="url(#htx)"><path fill="#fff" d="M87.082 62.636C87.684 32.826 70.804 6.85 62.012.607c-.04-.04-.823-.462-.763.703 0 .02-.02.02-.02.04-.903 56.308-29.847 71.484-45.563 92.12-34.925 45.889-5.781 98.243 31.974 108.159.643.161 2.389.683 5.7 1.365 1.727.362 2.229-1.104.964-3.292-4.516-7.849-12.545-21.098-14.13-38.121-3.613-39.526 46.205-64.257 46.908-98.945Z"></path><path fill="#008CD6" d="M106.11 81.727c-.301-.221-.722-.201-.762.18-.803 7.167-8.21 22.022-17.965 35.913-32.838 46.833-16.298 68.071-3.452 82.806 2.368 2.73 3.552 2.128 4.797.181 1.164-1.847 2.93-4.196 10.518-7.789 1.184-.562 29.847-15.778 32.958-50.426 2.991-33.524-18.507-54.723-26.094-60.865Z"></path><path fill="#fff" d="M276.622 73.195V196.43h-26.435v-49.783h-50.802v49.783h-27.097V73.195h27.097v49.784h50.802V73.195h26.435ZM398.84 73.195v24.37h-37.956v98.845h-27.197V97.565h-37.274v-24.37H398.84Z"></path><path fill="#fff" fill-rule="evenodd" d="m495.105 196.551-31.072-42.879-30.83 42.698-30.148.04 45.704-62.912-43.135-60.303h30.128l89.36 123.356h-30.007Z" clip-rule="evenodd"></path><path fill="#008CD6" d="m472.483 100.777 14.914 20.717 35.327-48.319h-29.968l-20.273 27.602Z"></path></g><defs><clipPath id="htx"><path fill="#fff" d="M0 0h525v203H0z"></path></clipPath></defs></svg>